<svg width="540" height="240" viewBox="0 0 540 240" fill="none" xmlns="http://www.w3.org/2000/svg">
<path d="M189.71 63.0174C185.977 63.0121 182.255 62.6031 178.61 61.7974C175.243 61.109 172.002 59.9083 169 58.2374C168.283 57.894 167.645 57.4043 167.128 56.7998C166.612 56.1953 166.227 55.4893 166 54.7274C165.588 53.307 165.68 51.7878 166.26 50.4274C166.505 49.7174 166.909 49.0728 167.441 48.5427C167.973 48.0127 168.62 47.6113 169.331 47.3691C170.042 47.127 170.799 47.0505 171.544 47.1455C172.289 47.2405 173.002 47.5045 173.63 47.9174C176.04 49.283 178.643 50.2775 181.35 50.8674C184.11 51.4908 186.93 51.8094 189.76 51.8174C193.933 51.8174 196.933 51.1674 198.76 49.8674C199.59 49.3454 200.275 48.6229 200.752 47.7666C201.229 46.9103 201.483 45.9477 201.49 44.9674C201.518 44.196 201.359 43.4292 201.026 42.7326C200.694 42.036 200.197 41.4304 199.58 40.9674C198.313 39.9874 196.086 39.1474 192.9 38.4474L183.1 36.3674C172.18 34.0541 166.716 28.3874 166.71 19.3674C166.63 15.7518 167.702 12.2044 169.77 9.2374C171.992 6.21224 175.006 3.85916 178.48 2.43741C182.599 0.739451 187.025 -0.087912 191.48 0.00738999C194.687 -0.00575572 197.884 0.373737 201 1.13739C203.911 1.83148 206.693 2.98603 209.24 4.55741C209.894 4.91037 210.469 5.39308 210.929 5.97599C211.39 6.55889 211.727 7.22971 211.92 7.94739C212.277 9.27612 212.171 10.6868 211.62 11.9474C211.364 12.5604 210.986 13.1144 210.507 13.5754C210.029 14.0363 209.462 14.3944 208.84 14.6274C207.54 15.1474 205.936 14.9474 204.03 14.0274C202.113 13.0359 200.071 12.306 197.96 11.8574C195.794 11.3943 193.585 11.163 191.37 11.1674C187.73 11.1674 184.91 11.8674 182.91 13.2874C181.985 13.8774 181.224 14.6922 180.7 15.6558C180.175 16.6194 179.903 17.7003 179.91 18.7974C179.886 19.5692 180.037 20.3364 180.353 21.0414C180.668 21.7463 181.139 22.3706 181.73 22.8674C182.95 23.9074 185.06 24.7474 188.06 25.3874L197.86 27.4674C209.08 29.8941 214.69 35.3874 214.69 43.9474C214.758 47.5242 213.679 51.0288 211.61 53.9474C209.399 56.9391 206.396 59.253 202.94 60.6274C198.736 62.3078 194.236 63.1207 189.71 63.0174V63.0174Z" fill="#268FD1"/>
<path d="M232 62.8375C231.085 62.8989 230.168 62.7688 229.307 62.4554C228.446 62.142 227.66 61.6522 227 61.0175C225.769 59.6096 225.144 57.7735 225.26 55.9075V7.07745C225.26 2.45079 227.516 0.137451 232.03 0.137451C236.543 0.137451 238.766 2.45079 238.7 7.07745V25.4675H267.15V7.07745C267.15 2.45079 269.376 0.137451 273.83 0.137451C278.283 0.137451 280.536 2.45079 280.59 7.07745V55.9075C280.703 57.7715 280.082 59.6059 278.86 61.0175C278.198 61.6507 277.412 62.1395 276.551 62.4528C275.69 62.7661 274.774 62.8971 273.86 62.8375C272.945 62.904 272.027 62.7762 271.165 62.4625C270.303 62.1488 269.517 61.6564 268.86 61.0175C267.637 59.6059 267.016 57.7715 267.13 55.9075V36.6475H238.62V55.9075C238.62 60.5275 236.413 62.8375 232 62.8375Z" fill="#268FD1"/>
<path d="M296.3 62.8373C293.873 62.8373 292.136 62.0307 291.09 60.4173C290.043 58.804 290.073 56.804 291.18 54.4173L313.38 5.76733C314.087 4.07423 315.225 2.59537 316.68 1.47733C317.986 0.597299 319.525 0.127197 321.1 0.127197C322.675 0.127197 324.214 0.597299 325.52 1.47733C326.96 2.58871 328.07 4.07197 328.73 5.76733L351.11 54.4173C352.2 56.8473 352.25 58.8573 351.24 60.4173C350.709 61.2142 349.975 61.855 349.113 62.2733C348.252 62.6917 347.294 62.8726 346.34 62.7973C344.703 62.9032 343.083 62.413 341.78 61.4173C340.519 60.206 339.555 58.7211 338.96 57.0773L335.32 48.7473H306.79L303.23 57.0773C302.617 58.7119 301.674 60.2029 300.46 61.4573C299.3 62.4317 297.812 62.9255 296.3 62.8373V62.8373ZM320.93 15.2373L311.3 38.3073H330.9L321.1 15.2373H320.93Z" fill="#268FD1"/>
<path d="M368.36 62.8375C367.446 62.8971 366.529 62.7661 365.669 62.4528C364.808 62.1395 364.022 61.6507 363.36 61.0175C362.137 59.6059 361.516 57.7715 361.63 55.9075V7.07745C361.63 2.45079 363.883 0.137451 368.39 0.137451C372.897 0.137451 375.123 2.45079 375.07 7.07745V25.4675H403.52V7.07745C403.52 2.45079 405.747 0.137451 410.2 0.137451C414.653 0.137451 416.907 2.45079 416.96 7.07745V55.9075C417.074 57.7715 416.453 59.6059 415.23 61.0175C414.568 61.6507 413.782 62.1395 412.921 62.4528C412.06 62.7661 411.144 62.8971 410.23 62.8375C409.323 62.8968 408.415 62.7655 407.562 62.4521C406.71 62.1386 405.932 61.6499 405.28 61.0175C404.057 59.6059 403.436 57.7715 403.55 55.9075V36.6475H375V55.9075C375 60.5275 372.787 62.8375 368.36 62.8375Z" fill="#268FD1"/>
<path d="M457.17 63.0174C448.503 63.0174 441.897 60.7908 437.35 56.3374C432.803 51.8841 430.537 45.2641 430.55 36.4774V6.98741C430.432 5.13488 431.054 3.31117 432.28 1.9174C432.95 1.29776 433.738 0.820508 434.597 0.514542C435.457 0.208576 436.369 0.0802713 437.28 0.137406C441.733 0.137406 443.96 2.42075 443.96 6.98741V36.5674C443.96 41.5407 445.087 45.2841 447.34 47.7974C449.593 50.3107 452.86 51.5674 457.14 51.5674C465.873 51.5674 470.24 46.5674 470.24 36.5674V6.98741C470.24 2.42741 472.463 0.144073 476.91 0.137406C477.806 0.0767807 478.704 0.203794 479.548 0.5103C480.392 0.816807 481.162 1.29606 481.81 1.9174C483.018 3.3202 483.628 5.14016 483.51 6.98741V36.4774C483.51 45.2641 481.283 51.8841 476.83 56.3374C472.377 60.7908 465.823 63.0174 457.17 63.0174Z" fill="#268FD1"/>
<path d="M504 62.0574C503.071 62.1242 502.138 62.0018 501.258 61.6975C500.378 61.3933 499.569 60.9135 498.88 60.2874C498.271 59.596 497.805 58.7915 497.508 57.9197C497.212 57.048 497.09 56.1263 497.15 55.2074V7.59735C497.031 5.74482 497.653 3.92114 498.88 2.52738C499.549 1.90676 500.337 1.42886 501.196 1.12284C502.056 0.81681 502.969 0.689071 503.88 0.747378C508.333 0.747378 510.556 3.03069 510.55 7.59735V50.6974H533.79C537.67 50.6974 539.61 52.5774 539.61 56.3374C539.61 60.1574 537.67 62.0574 533.79 62.0574H504Z" fill="#268FD1"/>
<path d="M188.5 145.307C184.475 145.402 180.475 144.663 176.75 143.137C173.679 141.895 171.019 139.816 169.07 137.137C167.254 134.515 166.313 131.386 166.38 128.197C166.296 124.525 167.46 120.933 169.68 118.007C172.093 114.964 175.101 112.442 178.52 110.597L178.61 110.507C176.749 108.661 175.223 106.506 174.1 104.137C173.14 102.055 172.638 99.7905 172.63 97.4974C172.574 94.689 173.357 91.9278 174.88 89.5674C176.451 87.2224 178.642 85.3599 181.21 84.1874C184.172 82.8174 187.406 82.1337 190.67 82.1874C195.636 82.1874 199.566 83.4607 202.46 86.0074C203.903 87.2786 205.043 88.8579 205.794 90.6285C206.545 92.3992 206.889 94.316 206.8 96.2374C206.822 99.3383 205.916 102.375 204.2 104.957C202.037 107.964 199.219 110.439 195.96 112.197L206.28 122.777C207.076 121.08 207.745 119.325 208.28 117.527C208.848 115.577 209.296 113.593 209.62 111.587C210.286 108.121 212.196 106.387 215.35 106.387C216.087 106.337 216.826 106.447 217.516 106.709C218.207 106.972 218.832 107.38 219.35 107.907C219.817 108.507 220.149 109.202 220.321 109.942C220.494 110.683 220.504 111.453 220.35 112.197C219.914 115.518 219.126 118.783 218 121.937C216.967 124.833 215.626 127.609 214 130.217L220.5 136.547C221.104 137.034 221.601 137.641 221.959 138.329C222.317 139.018 222.528 139.773 222.58 140.547C222.587 141.174 222.454 141.795 222.191 142.364C221.928 142.933 221.541 143.436 221.06 143.837C219.903 144.785 218.433 145.267 216.94 145.187C215.609 145.243 214.289 144.924 213.13 144.267C211.96 143.517 210.882 142.631 209.92 141.627L206.8 138.417C204.28 140.597 201.405 142.329 198.3 143.537C195.172 144.733 191.848 145.333 188.5 145.307V145.307ZM189.28 135.157C193.044 135.197 196.689 133.839 199.51 131.347L185.64 117.467C181.473 120.007 179.39 123.244 179.39 127.177C179.342 128.289 179.553 129.397 180.006 130.414C180.459 131.431 181.141 132.329 182 133.037C183.68 134.451 186.106 135.157 189.28 135.157V135.157ZM190.67 91.1574C189.858 91.1181 189.047 91.244 188.285 91.5277C187.524 91.8113 186.828 92.2467 186.24 92.8074C185.686 93.3814 185.255 94.0623 184.973 94.8085C184.691 95.5547 184.564 96.3505 184.6 97.1474C184.595 98.4987 184.939 99.8284 185.6 101.007C186.578 102.589 187.728 104.058 189.03 105.387C191.146 104.35 193.057 102.937 194.67 101.217C195.737 99.9578 196.318 98.3582 196.31 96.7074C196.368 95.9465 196.264 95.1819 196.003 94.4646C195.743 93.7472 195.332 93.0937 194.8 92.5474C193.638 91.6045 192.162 91.1365 190.67 91.2374V91.1574Z" fill="#4FB8ED"/>
<path d="M232.12 144.347C231.171 144.42 230.217 144.292 229.321 143.972C228.425 143.651 227.607 143.146 226.92 142.487C226.339 141.841 225.907 141.076 225.651 140.245C225.395 139.415 225.323 138.539 225.44 137.677C225.714 135.47 226.617 133.387 228.04 131.677L256.58 94.3875H231.08C227.146 94.3875 225.18 92.5075 225.18 88.7475C225.18 84.9875 227.146 83.1375 231.08 83.1975H265.94C266.896 83.133 267.856 83.2658 268.759 83.5875C269.662 83.9091 270.489 84.4129 271.19 85.0675C271.78 85.7005 272.223 86.4568 272.486 87.2817C272.749 88.1065 272.825 88.9795 272.71 89.8375C272.402 92.0527 271.469 94.1342 270.02 95.8375L241.57 133.127H268.37C272.296 133.127 274.263 134.977 274.27 138.677C274.27 142.437 272.27 144.307 268.37 144.307L232.12 144.347Z" fill="#268FD1"/>
<path d="M284.16 144.347C279.493 144.347 277.16 142.014 277.16 137.347V90.2374C277.16 85.5708 279.493 83.2374 284.16 83.2374H314.42C317.953 83.2374 319.716 84.9741 319.71 88.4474C319.71 91.9674 317.95 93.7374 314.42 93.7374H290V108.047H312.46C316.04 108.047 317.83 109.811 317.83 113.337C317.83 116.857 316.04 118.627 312.46 118.627H290V133.887H314.45C317.98 133.887 319.74 135.627 319.74 139.087C319.74 142.547 317.98 144.377 314.45 144.377L284.16 144.347Z" fill="#268FD1"/>
<path d="M332.29 144.347C327.623 144.347 325.29 142.014 325.29 137.347V90.2374C325.29 85.5708 327.623 83.2374 332.29 83.2374H362.55C366.083 83.2374 367.847 84.9741 367.84 88.4474C367.84 91.9674 366.08 93.7374 362.55 93.7374H338.1V108.047H360.56C364.14 108.047 365.94 109.807 365.94 113.337C365.94 116.867 364.14 118.627 360.56 118.627H338.1V133.887H362.55C366.08 133.887 367.84 135.627 367.84 139.087C367.84 142.547 366.08 144.377 362.55 144.377L332.29 144.347Z" fill="#268FD1"/>
<path d="M379.64 145.137C375.48 145.137 373.397 142.967 373.39 138.627V89.2373C373.271 87.4265 373.846 85.6384 375 84.2373C375.548 83.6556 376.214 83.199 376.955 82.8987C377.695 82.5984 378.492 82.4615 379.29 82.4973C380.541 82.4333 381.783 82.7507 382.85 83.4073C383.965 84.2687 384.957 85.278 385.8 86.4073L413.89 122.217V88.9173C413.89 84.6373 415.973 82.4973 420.14 82.4973C424.307 82.4973 426.387 84.6373 426.38 88.9173V138.917C426.469 140.564 425.945 142.184 424.91 143.467C424.414 144.033 423.797 144.48 423.104 144.775C422.412 145.069 421.662 145.203 420.91 145.167C419.552 145.225 418.208 144.877 417.05 144.167C415.879 143.327 414.841 142.316 413.97 141.167L385.87 105.347V138.647C385.877 142.974 383.8 145.137 379.64 145.137Z" fill="#268FD1"/>
<path d="M436.1 145.137C433.667 145.137 431.93 144.327 430.89 142.707C429.85 141.087 429.88 139.087 430.98 136.707L453.18 88.0574C453.89 86.3659 455.027 84.8877 456.48 83.7674C457.786 82.8874 459.325 82.4172 460.9 82.4172C462.475 82.4172 464.014 82.8874 465.32 83.7674C466.758 84.8809 467.867 86.3635 468.53 88.0574L490.91 136.707C492 139.137 492.05 141.147 491.04 142.707C490.509 143.505 489.776 144.148 488.914 144.568C488.053 144.988 487.095 145.171 486.14 145.097C484.502 145.2 482.882 144.707 481.58 143.707C480.32 142.496 479.355 141.011 478.76 139.367L475.12 131.047H446.59L443 139.407C442.392 141.045 441.449 142.537 440.23 143.787C439.074 144.744 437.598 145.226 436.1 145.137ZM460.73 97.5174L451.1 120.587H470.7L460.9 97.5174H460.73Z" fill="#268FD1"/>
<path d="M509.81 145.137C508.895 145.196 507.978 145.064 507.117 144.749C506.256 144.434 505.47 143.943 504.81 143.307C503.581 141.899 502.959 140.062 503.08 138.197V94.3075H487.7C483.94 94.3075 482.06 92.4575 482.06 88.7575C482.06 85.0575 483.94 83.2175 487.7 83.2375H531.84C535.6 83.2375 537.48 85.0875 537.48 88.7875C537.48 92.4875 535.6 94.3375 531.84 94.3375H516.49V138.237C516.609 140.095 516.003 141.927 514.8 143.347C514.141 143.981 513.356 144.468 512.496 144.777C511.636 145.086 510.721 145.208 509.81 145.137V145.137Z" fill="#268FD1"/>
<mask id="mask0_17_146" style="mask-type:alpha" maskUnits="userSpaceOnUse" x="0" y="0" width="147" height="216">
<rect y="0.237427" width="146.071" height="215.263" rx="10" fill="#D9D9D9"/>
</mask>
<g mask="url(#mask0_17_146)">
<path d="M83.2097 -38.4504C84.124 -38.2476 85.0609 -38.1576 85.9984 -38.1826C93.8321 -37.5654 101.556 -36.0026 108.992 -33.5301C109.697 -33.302 109.819 -33.0639 109.564 -32.3695C102.128 -12.2121 94.7048 7.95845 87.2956 28.1423C87.0913 28.6879 86.9177 28.8664 86.2742 28.6581C82.9868 27.5981 79.5025 27.2394 76.0594 27.6066C75.4976 27.6562 75.5078 27.3883 75.4669 27.0411C75.0447 23.589 74.6293 20.1402 74.2207 16.6946C73.6419 11.8537 73.063 7.01604 72.4842 2.18171L70.8396 -12.103L68.9397 -27.8659C68.5617 -31.0303 68.2042 -34.1948 67.8058 -37.3493C67.7343 -37.8949 68.0408 -37.9049 68.4085 -37.9346L72.617 -38.2818C72.8417 -38.2818 73.1073 -38.1826 73.281 -38.4405L83.2097 -38.4504Z" fill="#F2CE1D"/>
<path d="M171.608 54.0333C171.379 54.8805 171.297 55.7588 171.363 56.6323C170.924 64.5737 169.413 72.4246 166.869 79.9839C165.551 83.8512 163.978 87.6319 162.16 91.3025C161.894 91.8283 161.659 91.8184 161.138 91.5902C153.647 87.9595 146.156 84.3454 138.666 80.7477C126.367 74.7957 114.072 68.8834 101.78 63.0108C101.126 62.7033 101.034 62.4553 101.341 61.8006C102.789 58.8564 103.552 55.6392 103.578 52.3766C103.578 51.9005 103.7 51.6822 104.211 51.7517C104.347 51.7616 104.484 51.7616 104.62 51.7517H170.526C170.898 51.6792 171.285 51.7466 171.608 51.9401V54.0333Z" fill="#F2CE1D"/>
<path d="M96.7442 140.327C96.1518 140.416 96.1518 140.099 96.1007 139.851C95.3652 136.273 94.657 132.685 93.976 129.088L88.5214 101.669C86.8257 93.1775 85.1232 84.6827 83.414 76.1846C83.3322 75.8076 83.414 75.6687 83.8021 75.5993C87.2611 74.8998 90.5208 73.4745 93.353 71.423C93.8331 71.0758 93.9454 71.423 94.1497 71.6809L106.99 87.9993L134.294 122.719C134.948 123.552 134.958 123.552 134.1 124.177C123.094 132.149 110.406 137.654 96.9486 140.297L96.7442 140.327Z" fill="#F2CE1D"/>
<path d="M53.6073 138.77C51.5133 138.194 49.4192 137.569 47.3558 136.845C36.3448 133.018 26.1717 127.217 17.3652 119.743C16.8545 119.307 16.8443 119.089 17.2937 118.603C29.4357 105.376 41.5675 92.1493 53.689 78.9227C56.2938 76.0856 58.8883 73.2683 61.4727 70.4213C61.7689 70.0939 61.9528 69.9848 62.3613 70.332C64.9454 72.5153 67.9834 74.1326 71.2686 75.0737C71.8611 75.2424 71.9122 75.4804 71.759 76.0161C65.9297 96.7025 60.0971 117.386 54.261 138.065C54.1385 138.343 54.2713 138.899 53.6073 138.77Z" fill="#F2CE1D"/>
<path d="M167.042 24.1245C167.103 24.5709 166.746 24.5412 166.521 24.6106L154.059 28.4496L111.453 41.6333C108.634 42.5062 105.825 43.3593 103.016 44.2422C102.617 44.3712 102.413 44.3712 102.26 43.9149C101.175 40.7333 99.3903 37.8189 97.03 35.3738C96.5703 34.8976 96.7235 34.6992 97.1015 34.3322C101.719 30.0269 106.322 25.7117 110.912 21.3866L125.887 7.33998C132.254 1.388 138.608 -4.56398 144.948 -10.516C145.366 -10.9028 145.55 -10.7342 145.846 -10.4366C151.759 -4.41676 156.787 2.36629 160.791 9.72076C163.245 14.2063 165.296 18.8894 166.92 23.7178L167.042 24.1245Z" fill="#F2CE1D"/>
<path d="M27.805 -23.8384C28.1217 -23.7888 28.183 -23.4912 28.326 -23.2928L34.5774 -13.968C44.5402 0.892064 54.5064 15.7522 64.4761 30.6123C64.8642 31.1876 64.8234 31.4356 64.2309 31.8225C61.4443 33.671 59.0883 36.0671 57.3155 38.8558C57.0193 39.322 56.815 39.3617 56.294 39.0839C37.3013 28.1058 18.2882 17.131 -0.745335 6.15957C-1.28672 5.84213 -1.35821 5.63381 -1.02112 5.09813C6.13864 -6.3906 15.8425 -16.1871 27.3862 -23.5805L27.805 -23.8384Z" fill="#F2CE1D"/>
<path d="M-14.3823 52.0096C-14.3823 49.6883 -14.3824 47.6944 -14.1883 45.7005C-14.1372 45.1747 -14.0453 44.9763 -13.4426 45.0259C-9.53032 45.3434 -5.60783 45.6211 -1.68535 45.8989L12.3293 46.8909L28.673 48.0813L42.9737 49.0733L52.8616 49.7875C53.311 49.7875 53.5562 49.8569 53.5154 50.4521C53.2947 53.7719 53.8174 57.0987 55.0476 60.2035C55.2621 60.7491 55.1497 60.9376 54.5981 61.1955C37.8663 67.7493 21.1345 74.3163 4.40265 80.8965C0.643609 82.3746 -3.13586 83.8725 -6.83361 85.3506C-7.518 85.6283 -7.68144 85.4498 -7.91638 84.8843C-10.9313 77.4077 -12.9099 69.5751 -13.8001 61.5923C-14.1631 58.4098 -14.3574 55.2114 -14.3823 52.0096V52.0096Z" fill="#F2CE1D"/>
<path d="M78.5417 71.552C89.7795 71.552 98.8895 62.7049 98.8895 51.7915C98.8895 40.878 89.7795 32.0309 78.5417 32.0309C67.3039 32.0309 58.1938 40.878 58.1938 51.7915C58.1938 62.7049 67.3039 71.552 78.5417 71.552Z" fill="#F2CE1D"/>
<path d="M271.202 204.437C271.202 230.427 264.349 255.765 251.605 276.899C238.861 298.032 220.864 313.902 200.139 322.281C179.413 330.661 156.998 331.131 136.036 323.626C115.074 316.121 96.6165 301.016 83.2512 280.43C69.8862 301.017 51.4284 316.122 30.4661 323.628C9.50378 331.134 -12.9119 330.664 -33.6378 322.284C-54.3638 313.904 -72.3606 298.035 -85.1049 276.9C-97.8491 255.766 -104.702 230.428 -104.702 204.437C-104.702 178.447 -97.8491 153.108 -85.1049 131.974C-72.3606 110.84 -54.3638 94.9701 -33.6378 86.5902C-12.9119 78.2103 9.50378 77.7403 30.4661 85.2462C51.4284 92.752 69.8862 107.857 83.2512 128.444C96.6165 107.858 115.074 92.7536 136.036 85.2482C156.998 77.7429 179.413 78.2131 200.139 86.5929C220.864 94.9727 238.861 110.842 251.605 131.976C264.349 153.109 271.202 178.447 271.202 204.437Z" fill="#268FD1" stroke="white" stroke-width="7" stroke-miterlimit="10"/>
<path d="M82.842 143.273C82.8519 144.756 82.4095 146.209 81.5704 147.448C80.7313 148.687 79.5332 149.657 78.1271 150.236C76.7211 150.815 75.17 150.976 73.6696 150.7C72.1692 150.424 70.7865 149.723 69.696 148.684C68.6056 147.646 67.8561 146.317 67.5421 144.866C67.2282 143.415 67.3638 141.905 67.9319 140.529C68.4999 139.152 69.4751 137.97 70.7342 137.131C71.9934 136.291 73.4802 135.833 75.0072 135.813C76.0292 135.792 77.0452 135.97 77.9955 136.335C78.9459 136.701 79.8114 137.247 80.5413 137.942C81.2712 138.637 81.8507 139.467 82.2458 140.382C82.6409 141.298 82.8436 142.281 82.842 143.273V143.273Z" fill="white"/>
<path d="M66.4986 187.02C66.4986 178.846 66.4986 170.672 66.4986 162.498C66.5197 162.018 66.4338 161.539 66.247 161.094C66.0601 160.649 65.7767 160.248 65.4159 159.919C59.5832 154.294 53.7914 148.62 47.9894 142.956C47.7136 142.698 47.4378 142.45 47.1825 142.172C45.8035 140.694 45.7422 139.196 47.0088 137.936C47.2894 137.64 47.6318 137.405 48.0132 137.247C48.3945 137.089 48.8061 137.012 49.2206 137.02C49.6352 137.029 50.0431 137.123 50.4173 137.296C50.7915 137.469 51.1234 137.718 51.3909 138.026C54.2102 140.674 56.958 143.392 59.7364 146.081C61.0896 147.282 62.3783 148.55 63.5976 149.88C64.2618 150.72 65.139 151.378 66.1434 151.79C67.1478 152.202 68.2451 152.354 69.3281 152.231C73.8124 152.033 78.3069 152.142 82.8014 152.231C83.2648 152.253 83.7275 152.175 84.1565 152.004C84.5855 151.833 84.9703 151.571 85.2836 151.239C89.6862 146.914 94.1398 142.638 98.5628 138.343C99.7477 137.182 101.045 136.607 102.649 137.549C104.508 138.651 104.692 140.664 102.945 142.38C100.708 144.632 98.3892 146.815 96.1113 149.027C92.4442 152.598 88.8077 156.189 85.0997 159.711C84.6669 160.082 84.3228 160.541 84.0917 161.055C83.8605 161.569 83.7479 162.126 83.7616 162.687C83.8365 178.969 83.8706 195.254 83.8638 211.542C83.8638 214.32 82.5767 215.679 80.0026 215.729C77.4284 215.778 75.9167 214.439 75.9167 211.84C75.9167 203.051 75.9167 194.265 75.9167 185.483C75.9167 185.106 75.9167 184.739 75.9167 184.372C75.9167 184.005 75.7634 183.588 75.171 183.578C74.5785 183.568 74.4253 183.846 74.4457 184.362C74.4662 184.878 74.4457 185.463 74.4457 186.018C74.4457 194.619 74.4457 203.23 74.4457 211.81C74.4457 215.133 71.5345 216.562 68.4598 215.322C66.897 214.687 66.4169 213.338 66.4169 211.701C66.4169 203.468 66.4169 195.234 66.4169 187L66.4986 187.02Z" fill="white"/>
<path d="M124.14 157.33C124.161 158.527 123.814 159.704 123.146 160.71C122.477 161.716 121.516 162.507 120.384 162.982C119.252 163.458 118 163.596 116.787 163.381C115.574 163.165 114.455 162.604 113.57 161.77C112.685 160.936 112.075 159.865 111.817 158.694C111.559 157.523 111.665 156.304 112.121 155.191C112.577 154.079 113.362 153.122 114.378 152.443C115.394 151.765 116.595 151.394 117.828 151.378C118.646 151.361 119.46 151.502 120.222 151.793C120.983 152.083 121.678 152.518 122.266 153.072C122.853 153.626 123.321 154.287 123.643 155.018C123.965 155.749 124.134 156.535 124.14 157.33V157.33Z" fill="white"/>
<path d="M110.974 192.556C110.974 185.969 110.974 179.392 110.974 172.815C110.993 172.428 110.924 172.042 110.772 171.683C110.62 171.325 110.389 171.003 110.095 170.742C105.396 166.208 100.738 161.635 96.0701 157.082C95.8454 156.874 95.6207 156.675 95.4164 156.447C94.3132 155.257 94.2621 154.036 95.2836 153.035C95.51 152.797 95.7854 152.61 96.0919 152.483C96.3983 152.357 96.7288 152.295 97.0617 152.302C97.3945 152.308 97.7222 152.383 98.0231 152.521C98.324 152.66 98.5914 152.858 98.8077 153.104C101.075 155.237 103.292 157.429 105.529 159.602C106.606 160.566 107.629 161.586 108.593 162.657C109.132 163.33 109.839 163.857 110.648 164.187C111.456 164.517 112.339 164.639 113.211 164.542C116.816 164.393 120.443 164.472 124.059 164.542C124.44 164.563 124.822 164.501 125.175 164.361C125.529 164.22 125.845 164.004 126.102 163.728C129.646 160.246 133.252 156.784 136.797 153.332C137.746 152.41 138.788 151.943 140.055 152.697C141.557 153.58 141.679 155.207 140.3 156.586C138.502 158.401 136.633 160.157 134.794 161.943C131.842 164.81 128.921 167.706 125.928 170.543C125.581 170.85 125.309 171.229 125.133 171.651C124.956 172.073 124.879 172.529 124.906 172.984C124.961 186.098 124.988 199.209 124.988 212.316C124.988 214.558 123.967 215.649 121.873 215.689C121.429 215.757 120.976 215.724 120.548 215.592C120.12 215.461 119.729 215.235 119.406 214.932C119.084 214.629 118.838 214.258 118.688 213.847C118.538 213.436 118.488 212.997 118.543 212.564C118.543 205.495 118.543 198.418 118.543 191.336C118.543 191.038 118.543 190.74 118.543 190.443C118.543 190.145 118.41 189.818 117.94 189.808C117.47 189.798 117.337 190.026 117.348 190.433C117.358 190.84 117.348 191.326 117.348 191.772C117.348 198.716 117.348 205.66 117.348 212.604C117.348 215.282 114.998 216.433 112.536 215.431C111.976 215.182 111.514 214.763 111.219 214.237C110.924 213.711 110.813 213.107 110.902 212.515C110.902 205.888 110.902 199.252 110.902 192.625L110.974 192.556Z" fill="white"/>
<path d="M37.4374 157.528C37.4474 158.724 37.0923 159.896 36.4169 160.896C35.7415 161.896 34.7761 162.68 33.6427 163.147C32.5092 163.615 31.2585 163.746 30.0485 163.523C28.8384 163.301 27.7234 162.736 26.8441 161.898C25.9648 161.061 25.3607 159.989 25.1081 158.819C24.8555 157.648 24.9657 156.431 25.4248 155.322C25.8839 154.212 26.6713 153.259 27.6876 152.584C28.7039 151.908 29.9035 151.541 31.1349 151.527C31.9567 151.511 32.7735 151.654 33.5375 151.949C34.3015 152.244 34.9973 152.683 35.5842 153.242C36.1711 153.801 36.6373 154.468 36.9555 155.204C37.2737 155.94 37.4376 156.73 37.4374 157.528Z" fill="white"/>
<path d="M24.2703 192.714C24.2703 186.138 24.2703 179.561 24.2703 172.974C24.2894 172.588 24.2217 172.202 24.0717 171.844C23.9218 171.486 23.6932 171.164 23.402 170.9C18.7032 166.367 14.0453 161.804 9.36689 157.251C9.15238 157.032 8.92765 156.834 8.72336 156.616C7.60995 155.425 7.55886 154.205 8.58034 153.193C8.80748 152.955 9.08413 152.767 9.39196 152.64C9.69978 152.514 10.0317 152.452 10.3659 152.46C10.7 152.467 11.0288 152.544 11.3302 152.684C11.6317 152.824 11.8991 153.025 12.1146 153.273C14.3823 155.406 16.5887 157.598 18.8258 159.76C19.9176 160.73 20.9575 161.753 21.9413 162.826C22.4785 163.497 23.1843 164.023 23.991 164.353C24.7978 164.683 25.6783 164.806 26.5481 164.71C30.1642 164.552 33.7802 164.641 37.4065 164.71C37.7792 164.73 38.1518 164.668 38.4965 164.529C38.8413 164.39 39.1495 164.177 39.3984 163.907C42.9429 160.425 46.5487 156.963 50.0932 153.511C51.0432 152.578 52.0851 152.112 53.3619 152.866C54.8635 153.759 54.9861 155.376 53.6071 156.755C51.7991 158.57 49.9298 160.326 48.1013 162.111C45.1493 164.988 42.2176 167.885 39.2349 170.712C38.8897 171.02 38.6191 171.399 38.4425 171.821C38.2659 172.243 38.1877 172.698 38.2134 173.152C38.2747 186.267 38.3019 199.381 38.2951 212.495C38.2951 214.727 37.2737 215.828 35.2307 215.868C33.1877 215.907 31.9007 214.876 31.9007 212.733C31.9007 205.66 31.9007 198.587 31.9007 191.514C31.9007 191.217 31.9007 190.919 31.9007 190.621C31.9007 190.324 31.7781 189.987 31.298 189.977C30.8179 189.967 30.6954 190.195 30.7158 190.611C30.7362 191.028 30.7158 191.504 30.7158 191.941C30.7158 198.885 30.7158 205.829 30.7158 212.773C30.7158 215.451 28.3664 216.602 25.8944 215.61C24.6278 215.094 24.26 214.003 24.26 212.634C24.26 206.007 24.26 199.381 24.26 192.794L24.2703 192.714Z" fill="white"/>
</g>
<path d="M174.535 215.644C173.813 215.644 173.248 215.441 172.842 215.034C172.435 214.628 172.232 214.063 172.232 213.341V169.852C172.232 169.084 172.435 168.497 172.842 168.09C173.248 167.684 173.813 167.481 174.535 167.481H199.531C200.118 167.481 200.57 167.639 200.886 167.955C201.247 168.271 201.428 168.7 201.428 169.242C201.428 169.874 201.247 170.348 200.886 170.665C200.57 170.935 200.118 171.071 199.531 171.071H176.364V189.293H198.177C198.764 189.293 199.215 189.451 199.531 189.767C199.893 190.038 200.073 190.467 200.073 191.054C200.073 191.641 199.893 192.093 199.531 192.409C199.215 192.725 198.764 192.883 198.177 192.883H176.364V213.341C176.364 214.876 175.755 215.644 174.535 215.644ZM219.885 215.779C216.814 215.779 214.149 215.079 211.891 213.679C209.633 212.279 207.872 210.315 206.607 207.786C205.388 205.257 204.779 202.254 204.779 198.777C204.779 196.202 205.117 193.877 205.795 191.799C206.517 189.722 207.533 187.938 208.843 186.448C210.198 184.912 211.801 183.761 213.652 182.993C215.549 182.18 217.627 181.774 219.885 181.774C223.001 181.774 225.688 182.474 227.946 183.874C230.204 185.274 231.942 187.261 233.162 189.835C234.426 192.364 235.058 195.344 235.058 198.777C235.058 201.396 234.697 203.744 233.974 205.822C233.297 207.899 232.281 209.683 230.926 211.173C229.617 212.663 228.036 213.815 226.184 214.628C224.333 215.395 222.233 215.779 219.885 215.779ZM219.885 212.325C222.143 212.325 224.084 211.805 225.71 210.767C227.381 209.683 228.646 208.125 229.504 206.093C230.407 204.06 230.858 201.622 230.858 198.777C230.858 194.486 229.865 191.167 227.878 188.819C225.936 186.471 223.272 185.296 219.885 185.296C217.672 185.296 215.73 185.838 214.059 186.922C212.433 187.961 211.169 189.496 210.265 191.528C209.407 193.515 208.978 195.932 208.978 198.777C208.978 203.112 209.972 206.454 211.959 208.802C213.946 211.15 216.588 212.325 219.885 212.325ZM255.44 215.779C252.82 215.779 250.63 215.305 248.869 214.357C247.153 213.408 245.866 211.986 245.008 210.089C244.15 208.192 243.721 205.844 243.721 203.044V184.077C243.721 183.354 243.901 182.813 244.262 182.451C244.624 182.09 245.143 181.909 245.82 181.909C246.453 181.909 246.949 182.09 247.311 182.451C247.672 182.813 247.853 183.354 247.853 184.077V202.841C247.853 206.002 248.507 208.373 249.817 209.954C251.127 211.489 253.182 212.257 255.981 212.257C259.052 212.257 261.536 211.241 263.433 209.209C265.33 207.131 266.278 204.422 266.278 201.08V184.077C266.278 183.354 266.459 182.813 266.82 182.451C267.181 182.09 267.7 181.909 268.378 181.909C269.01 181.909 269.507 182.09 269.868 182.451C270.229 182.813 270.41 183.354 270.41 184.077V213.544C270.41 214.944 269.755 215.644 268.446 215.644C267.813 215.644 267.317 215.463 266.955 215.102C266.594 214.741 266.413 214.221 266.413 213.544V206.838L267.226 207.312C266.368 210.067 264.878 212.167 262.755 213.612C260.633 215.057 258.194 215.779 255.44 215.779ZM283.398 215.644C282.721 215.644 282.201 215.463 281.84 215.102C281.479 214.741 281.298 214.221 281.298 213.544V184.077C281.298 183.354 281.479 182.813 281.84 182.451C282.201 182.09 282.721 181.909 283.398 181.909C284.03 181.909 284.505 182.09 284.821 182.451C285.182 182.813 285.363 183.354 285.363 184.077V190.445L284.618 190.038C285.521 187.329 287.056 185.274 289.224 183.874C291.437 182.474 293.966 181.774 296.811 181.774C299.43 181.774 301.598 182.248 303.314 183.196C305.075 184.1 306.385 185.5 307.243 187.396C308.101 189.293 308.53 191.664 308.53 194.509V213.544C308.53 214.221 308.349 214.741 307.988 215.102C307.627 215.463 307.13 215.644 306.498 215.644C305.82 215.644 305.301 215.463 304.94 215.102C304.578 214.741 304.398 214.221 304.398 213.544V194.848C304.398 191.551 303.743 189.158 302.433 187.667C301.123 186.132 299.046 185.364 296.201 185.364C292.95 185.364 290.33 186.38 288.343 188.412C286.401 190.399 285.43 193.086 285.43 196.473V213.544C285.43 214.944 284.753 215.644 283.398 215.644ZM331.735 215.779C328.8 215.779 326.226 215.102 324.013 213.747C321.845 212.347 320.152 210.383 318.933 207.854C317.758 205.28 317.171 202.254 317.171 198.777C317.171 195.299 317.758 192.296 318.933 189.767C320.107 187.238 321.778 185.274 323.945 183.874C326.158 182.474 328.755 181.774 331.735 181.774C334.806 181.774 337.426 182.564 339.593 184.145C341.761 185.725 343.206 187.848 343.929 190.512H343.183V169.174C343.183 168.452 343.364 167.932 343.725 167.616C344.087 167.255 344.583 167.074 345.216 167.074C345.893 167.074 346.412 167.255 346.774 167.616C347.135 167.932 347.316 168.452 347.316 169.174V213.544C347.316 214.221 347.135 214.741 346.774 215.102C346.412 215.463 345.916 215.644 345.283 215.644C344.606 215.644 344.087 215.463 343.725 215.102C343.364 214.741 343.183 214.221 343.183 213.544V206.567L343.929 207.041C343.206 209.705 341.761 211.828 339.593 213.408C337.426 214.989 334.806 215.779 331.735 215.779ZM332.277 212.325C334.535 212.325 336.477 211.805 338.103 210.767C339.774 209.683 341.038 208.125 341.896 206.093C342.8 204.06 343.251 201.622 343.251 198.777C343.251 194.486 342.258 191.167 340.271 188.819C338.329 186.471 335.664 185.296 332.277 185.296C330.065 185.296 328.123 185.838 326.452 186.922C324.826 187.961 323.561 189.496 322.658 191.528C321.8 193.515 321.371 195.932 321.371 198.777C321.371 203.112 322.365 206.454 324.352 208.802C326.339 211.15 328.981 212.325 332.277 212.325ZM368.328 215.779C366.115 215.779 364.128 215.35 362.367 214.492C360.651 213.634 359.274 212.46 358.235 210.97C357.241 209.48 356.745 207.809 356.745 205.957C356.745 203.518 357.354 201.599 358.574 200.199C359.793 198.799 361.848 197.828 364.738 197.286C367.628 196.699 371.602 196.406 376.66 196.406H379.573V199.454H376.728C372.664 199.454 369.48 199.635 367.177 199.996C364.919 200.312 363.338 200.922 362.435 201.825C361.532 202.728 361.08 203.993 361.08 205.618C361.08 207.651 361.78 209.299 363.18 210.563C364.58 211.828 366.477 212.46 368.87 212.46C370.812 212.46 372.506 212.008 373.951 211.105C375.441 210.157 376.615 208.87 377.473 207.244C378.331 205.618 378.76 203.767 378.76 201.689V193.967C378.76 190.941 378.151 188.751 376.931 187.396C375.712 185.996 373.77 185.296 371.106 185.296C369.39 185.296 367.719 185.522 366.093 185.974C364.512 186.425 362.819 187.148 361.012 188.141C360.516 188.412 360.064 188.503 359.658 188.412C359.296 188.322 359.003 188.141 358.777 187.87C358.596 187.6 358.461 187.283 358.37 186.922C358.325 186.516 358.393 186.132 358.574 185.771C358.754 185.409 359.07 185.116 359.522 184.89C361.419 183.851 363.338 183.084 365.28 182.587C367.267 182.045 369.186 181.774 371.038 181.774C373.702 181.774 375.893 182.225 377.609 183.129C379.37 184.032 380.657 185.387 381.47 187.193C382.328 188.999 382.757 191.325 382.757 194.17V213.544C382.757 214.221 382.599 214.741 382.283 215.102C381.967 215.463 381.492 215.644 380.86 215.644C380.228 215.644 379.731 215.463 379.37 215.102C379.009 214.741 378.828 214.221 378.828 213.544V207.312H379.505C379.099 209.073 378.376 210.586 377.338 211.85C376.299 213.115 375.012 214.086 373.477 214.763C371.941 215.441 370.225 215.779 368.328 215.779ZM405.955 215.779C403.517 215.779 401.484 215.328 399.859 214.425C398.233 213.521 397.013 212.234 396.201 210.563C395.388 208.847 394.981 206.747 394.981 204.264V185.703H389.969C389.381 185.703 388.907 185.567 388.546 185.296C388.185 184.98 388.004 184.551 388.004 184.009C388.004 183.513 388.185 183.129 388.546 182.858C388.907 182.542 389.381 182.384 389.969 182.384H394.981V173.916C394.981 173.193 395.162 172.674 395.523 172.358C395.884 171.997 396.404 171.816 397.081 171.816C397.713 171.816 398.21 171.997 398.572 172.358C398.933 172.674 399.113 173.193 399.113 173.916V182.384H408.258C408.891 182.384 409.365 182.542 409.681 182.858C409.997 183.129 410.155 183.513 410.155 184.009C410.155 184.551 409.997 184.98 409.681 185.296C409.365 185.567 408.891 185.703 408.258 185.703H399.113V203.722C399.113 206.476 399.678 208.576 400.807 210.021C401.936 211.467 403.81 212.189 406.429 212.189C407.333 212.189 408.078 212.099 408.665 211.918C409.297 211.692 409.816 211.579 410.223 211.579C410.539 211.579 410.81 211.715 411.036 211.986C411.307 212.257 411.442 212.686 411.442 213.273C411.442 213.634 411.352 213.996 411.171 214.357C411.036 214.718 410.765 214.944 410.358 215.034C409.862 215.215 409.184 215.373 408.326 215.508C407.468 215.689 406.678 215.779 405.955 215.779ZM418.547 215.508C417.87 215.508 417.351 215.305 416.989 214.899C416.628 214.492 416.447 213.95 416.447 213.273V184.28C416.447 183.558 416.628 183.016 416.989 182.654C417.351 182.293 417.87 182.113 418.547 182.113C419.18 182.113 419.676 182.293 420.038 182.654C420.399 183.016 420.58 183.558 420.58 184.28V213.273C420.58 213.95 420.399 214.492 420.038 214.899C419.722 215.305 419.225 215.508 418.547 215.508ZM418.547 173.916C417.599 173.916 416.854 173.668 416.312 173.171C415.815 172.674 415.567 171.974 415.567 171.071C415.567 170.168 415.815 169.49 416.312 169.039C416.854 168.542 417.599 168.294 418.547 168.294C419.496 168.294 420.218 168.542 420.715 169.039C421.257 169.49 421.528 170.168 421.528 171.071C421.528 171.974 421.257 172.674 420.715 173.171C420.218 173.668 419.496 173.916 418.547 173.916ZM444.538 215.779C441.467 215.779 438.803 215.079 436.545 213.679C434.287 212.279 432.525 210.315 431.261 207.786C430.042 205.257 429.432 202.254 429.432 198.777C429.432 196.202 429.771 193.877 430.448 191.799C431.171 189.722 432.187 187.938 433.496 186.448C434.851 184.912 436.454 183.761 438.306 182.993C440.203 182.18 442.28 181.774 444.538 181.774C447.654 181.774 450.341 182.474 452.599 183.874C454.857 185.274 456.596 187.261 457.815 189.835C459.079 192.364 459.712 195.344 459.712 198.777C459.712 201.396 459.35 203.744 458.628 205.822C457.95 207.899 456.934 209.683 455.58 211.173C454.27 212.663 452.689 213.815 450.838 214.628C448.986 215.395 446.886 215.779 444.538 215.779ZM444.538 212.325C446.796 212.325 448.738 211.805 450.364 210.767C452.034 209.683 453.299 208.125 454.157 206.093C455.06 204.06 455.512 201.622 455.512 198.777C455.512 194.486 454.518 191.167 452.531 188.819C450.589 186.471 447.925 185.296 444.538 185.296C442.325 185.296 440.383 185.838 438.712 186.922C437.086 187.961 435.822 189.496 434.919 191.528C434.061 193.515 433.632 195.932 433.632 198.777C433.632 203.112 434.625 206.454 436.612 208.802C438.599 211.15 441.241 212.325 444.538 212.325ZM470.609 215.644C469.932 215.644 469.413 215.463 469.051 215.102C468.69 214.741 468.509 214.221 468.509 213.544V184.077C468.509 183.354 468.69 182.813 469.051 182.451C469.413 182.09 469.932 181.909 470.609 181.909C471.242 181.909 471.716 182.09 472.032 182.451C472.393 182.813 472.574 183.354 472.574 184.077V190.445L471.829 190.038C472.732 187.329 474.267 185.274 476.435 183.874C478.648 182.474 481.177 181.774 484.022 181.774C486.641 181.774 488.809 182.248 490.525 183.196C492.286 184.1 493.596 185.5 494.454 187.396C495.312 189.293 495.741 191.664 495.741 194.509V213.544C495.741 214.221 495.56 214.741 495.199 215.102C494.838 215.463 494.341 215.644 493.709 215.644C493.031 215.644 492.512 215.463 492.151 215.102C491.789 214.741 491.609 214.221 491.609 213.544V194.848C491.609 191.551 490.954 189.158 489.644 187.667C488.335 186.132 486.257 185.364 483.412 185.364C480.161 185.364 477.541 186.38 475.554 188.412C473.612 190.399 472.642 193.086 472.642 196.473V213.544C472.642 214.944 471.964 215.644 470.609 215.644Z" fill="#EBEBEB"/>
</svg>
